<?xml version="1.0" encoding="utf-8"?>
<!-- Generator: Adobe Illustrator 19.0.0, SVG Export Plug-In . SVG Version: 6.00 Build 0)  -->
<svg version="1.1" id="Layer_1" xmlns="http://www.w3.org/2000/svg" xmlns:xlink="http://www.w3.org/1999/xlink" x="0px" y="0px"
	 viewBox="0 0 371 344" style="enable-background:new 0 0 371 344;" xml:space="preserve">
<style type="text/css">
	.st0{fill:#FFFFFF;}
</style>
<g id="XMLID_30_">
	<path id="XMLID_68_" class="st0" d="M20.7,232.4C9,232.4,0,223.3,0,211.8v-0.1C0,200.3,8.8,191,21.1,191c7.5,0,12.2,2.5,15.9,6.2
		l-5.5,6.5c-3.1-2.8-6-4.5-10-4.5c-6.7,0-11.4,5.6-11.4,12.4v0.1c0,6.9,4.5,12.6,11.4,12.6c4.6,0,7.3-1.8,10.4-4.7l5.4,5.7
		C33.1,229.6,28.4,232.4,20.7,232.4z"/>
	<path id="XMLID_65_" class="st0" d="M71.8,232l-3.7-9H51.2l-3.7,9h-9l17.1-41h8.1L81,232H71.8z M59.7,202l-5.3,13H65L59.7,202z"/>
	<path id="XMLID_63_" class="st0" d="M100,200v32h-9v-32H79v-8h33v8H100z"/>
	<path id="XMLID_61_" class="st0" d="M143,232v-16h-16v16h-9v-40h9v16h16v-16h9v40H143z"/>
	<path id="XMLID_58_" class="st0" d="M179.4,232.4c-12.3,0-21.4-9.2-21.4-20.6v-0.1c0-11.4,9.2-20.7,21.6-20.7
		c12.3,0,21.4,9.2,21.4,20.6v0.1C201,223,191.8,232.4,179.4,232.4z M192,211.7c0-6.9-5.5-12.6-12.6-12.6c-7.1,0-12.4,5.6-12.4,12.4
		v0.1c0,6.9,5.5,12.6,12.6,12.6c7.1,0,12.4-5.6,12.4-12.4V211.7z"/>
	<path id="XMLID_56_" class="st0" d="M207,232v-40h9v32h20v8H207z"/>
	<path id="XMLID_54_" class="st0" d="M242,232v-40h9v40H242z"/>
	<path id="XMLID_52_" class="st0" d="M279.4,232.4c-11.8,0-20.4-9.1-20.4-20.6v-0.1c0-11.4,8.5-20.7,20.8-20.7
		c7.5,0,12,2.5,15.7,6.2l-5.6,6.5c-3.1-2.8-6.3-4.5-10.3-4.5c-6.7,0-11.6,5.6-11.6,12.4v0.1c0,6.9,4.8,12.6,11.6,12.6
		c4.6,0,7.4-1.8,10.5-4.7l5.6,5.7C291.7,229.6,287.2,232.4,279.4,232.4z"/>
	<path id="XMLID_50_" class="st0" d="M2,288v-40h30v8H11v8h19v8H11v8h22v8H2z"/>
	<path id="XMLID_47_" class="st0" d="M55.5,288H40v-40h15.5C68,248,77,256.4,77,267.7v0.1C77,279,68,288,55.5,288z M68,267.8
		c0-7.1-5.3-11.8-12.5-11.8H49v24h6.5c7.2,0,12.5-5,12.5-12.1V267.8z"/>
	<path id="XMLID_45_" class="st0" d="M100.4,288.4c-10.7,0-17.4-6-17.4-17.8V248h9v22.4c0,6.5,3.1,9.9,8.5,9.9
		c5.4,0,8.5-3.3,8.5-9.6V248h9v22.4C118,282.5,111.1,288.4,100.4,288.4z"/>
	<path id="XMLID_43_" class="st0" d="M144.7,288.5c-11.8,0-20.7-9.1-20.7-20.6v-0.1c0-11.4,8.7-20.7,21-20.7
		c7.5,0,12.1,2.5,15.8,6.2l-5.6,6.5c-3.1-2.8-6-4.5-10-4.5c-6.7,0-11.3,5.6-11.3,12.4v0.1c0,6.9,4.5,12.6,11.4,12.6
		c4.6,0,7.2-1.8,10.4-4.7l5.5,5.7C157.1,285.7,152.4,288.5,144.7,288.5z"/>
	<path id="XMLID_40_" class="st0" d="M197,288l-3.7-9h-16.9l-3.7,9h-9l17.1-40h8.1l17.1,40H197z M184.8,258l-5.3,13h10.6L184.8,258z
		"/>
	<path id="XMLID_38_" class="st0" d="M224,256v32h-9v-32h-12v-8h33v8H224z"/>
	<path id="XMLID_36_" class="st0" d="M243,288v-40h8v40H243z"/>
	<path id="XMLID_33_" class="st0" d="M278.9,288.5c-12.3,0-20.9-9.2-20.9-20.6v-0.1c0-11.4,8.7-20.7,21.1-20.7
		c12.3,0,20.9,9.2,20.9,20.6v0.1C300,279.1,291.3,288.5,278.9,288.5z M291,267.8c0-6.9-5-12.6-12.1-12.6s-11.9,5.6-11.9,12.4v0.1
		c0,6.9,5,12.6,12.1,12.6s11.9-5.6,11.9-12.4V267.8z"/>
	<path id="XMLID_31_" class="st0" d="M334.3,288L315,262.4V288h-9v-40h8.4l18.6,24.4V248h9v40H334.3z"/>
</g>
<path id="XMLID_29_" class="st0" d="M13,72v15h42v70c0,4.1,3.4,7.4,7.5,7.4c4.1,0,7.5-3.3,7.5-7.4V72H13z"/>
<g id="XMLID_26_">
	<path id="XMLID_28_" class="st0" d="M7.3,32.6C4.4,32.7,2,35,2,37.9v120.5c0,2.6,2,4.8,4.6,5.2c3,0.5,5.9,0.7,8.9,0.7
		c12.7,0,23.5-4.2,33.5-8.8v-11.5c-10,4.9-21.1,9.8-33.3,9.8c-1,0-1.7,0-2.7-0.1V42.8c17-1.5,29.7-8.1,41.4-14.1
		c1.7-0.9,2.6-1.7,4.6-2.6V50H38.9c-2.9,0-5.3,2.1-5.3,5s2.4,5,5.3,5H70V10.5c-7,2.1-13.4,5.4-20.2,8.9
		C37.3,25.7,24.1,32.2,7.3,32.6z"/>
	<path id="XMLID_27_" class="st0" d="M141.8,29l-0.6-0.4c-0.2-0.1-0.2-0.3-0.4-0.4C127.5,21.4,112,14.3,98,10v10.8
		c13,3.9,25,10.1,36,15.7V50H92V5.7c0-2.9-2.6-5.3-5.5-5.3c-2.9,0-5.5,2.4-5.5,5.3V60h53v87.2c-14-6.7-28-12.2-42-13.4V82h20.1
		c2.9,0,5.3-2.1,5.3-5c0-2.9-2.4-5-5.3-5H81v61.8v2.7v7.8c2-0.2,3.7-0.3,5.5-0.3c16,0,32.3,7.5,49.4,15.9c0.1,0,0.2,0,0.2,0.1
		l0.7,0.3c1.6,0.7,3.4,0.6,4.9-0.4c1.5-1,2.3-2.6,2.3-4.4V33.4C144,31.6,143.3,30,141.8,29z"/>
</g>
<path id="XMLID_23_" class="st0" d="M21.4,333h-0.2L7,311.6V344H2v-40h4.8l14.6,21.8L35.9,304H40v40h-4v-32.5L21.4,333z"/>
<path id="XMLID_21_" class="st0" d="M80,308H56v14h22v4H56v14h25v4H51v-40h29V308z"/>
<path id="XMLID_19_" class="st0" d="M89,304h5v36h22v4H89V304z"/>
<path id="XMLID_15_" class="st0" d="M154.4,313.9c0,5.3-3.2,7.9-6.3,9.3c4.7,1.4,8.6,4.2,8.6,9.8c0,6.9-5.8,11-14.5,11H124v-40h17.3
	C149.2,304,154.4,307.8,154.4,313.9z M149.8,314.7c0-4-3.1-6.7-8.8-6.7H129v14h11.6C146,322,149.8,319.4,149.8,314.7z M152,332.9
	c0-4.4-3.7-6.9-10.6-6.9H129v14h13.2C148.3,340,152,337.4,152,332.9z"/>
<path id="XMLID_12_" class="st0" d="M183.8,344.6c-12.2,0-20.3-9.5-20.3-20.6c0-11.1,8.3-20.7,20.4-20.7c12.2,0,20.3,9.5,20.3,20.6
	C204.2,334.9,195.9,344.6,183.8,344.6z M183.8,307.4c-9.1,0-15.6,7.3-15.6,16.4c0,9.1,6.6,16.6,15.8,16.6c9.1,0,15.6-7.3,15.6-16.4
	C199.5,314.8,192.9,307.4,183.8,307.4z"/>
<path id="XMLID_10_" class="st0" d="M246,326.8c0,11.6-6.5,17.7-16.5,17.7c-9.9,0-16.5-6.1-16.5-17.4V304h4v22.9
	c0,8.6,4.9,13.5,12.6,13.5c7.4,0,12.4-4.5,12.4-13.2V304h4V326.8z"/>
<path id="XMLID_7_" class="st0" d="M283.9,344l-11.6-16H261v16h-5v-40h17.6c8.8,0,14.4,4.7,14.4,11.9c0,6.7-4.6,10.6-10.8,11.7
	l12.3,16.4H283.9z M273.2,308H261v16h12.2c6,0,10.3-3,10.3-8.2C283.5,310.9,279.7,308,273.2,308z"/>
<path id="XMLID_5_" class="st0" d="M327,304h4v40h-3.5L302,311.1V344h-5v-40h4.5l25.5,31.9V304z"/>
<path id="XMLID_3_" class="st0" d="M371,308h-24v14h21v4h-21v14h24v4h-29v-40h29V308z"/>
</svg>
