<svg width="332" height="61" viewBox="0 0 332 61" xmlns="http://www.w3.org/2000/svg"><title>Logo/CECV Logo Dark</title><g fill="none" fill-rule="evenodd"><path d="M80.217 13.21c.262-3.99-2.616-6.374-6.488-6.374-7.904 0-11.673 7.564-11.673 14.503 0 4.764 2.408 8.286 7.538 8.286 4.343 0 7.484-2.797 8.895-6.683h3.298c-1.988 6.113-6.072 9.428-12.613 9.428-6.7 0-10.415-4.452-10.415-11.03C58.76 13 64.15 4.09 73.414 4.09c5.86 0 10.31 2.9 10.1 9.117h-3.297" fill="#FCDA1E"/><path d="M62.192 19.078h-8.62L57.933.075h-2.907L50.66 19.08h-9.23l-.54 2.74h9.136L40.94 60.135h2.907l9.088-38.317h9.138c-.007-.16-.016-.317-.016-.48 0-.75.05-1.507.135-2.26" fill="#FFF"/><path d="M22.28 13.21c.263-3.99-2.615-6.374-6.487-6.374-7.903 0-11.67 7.564-11.67 14.503 0 4.764 2.405 8.286 7.534 8.286 4.344 0 7.485-2.797 8.9-6.683h3.294c-1.986 6.113-6.07 9.428-12.61 9.428C4.54 32.37.825 27.92.825 21.34.825 13 6.215 4.09 15.478 4.09c5.862 0 10.31 2.9 10.1 9.117h-3.297M86.807 4.87h3.455l3.193 23.048h.102L106.222 4.87h3.61L94.606 31.595h-3.558L86.807 4.87M46.218 29.818l-6.715-.192c-5.337 0-7.85-3.625-7.85-8.443 0-.724.05-1.45.156-2.07l.418-2.744c1.152-4.976 4.867-9.534 10.31-9.534 4.553 0 7.378 3.005 7.378 7.46 0 .672-.05 1.345-.05 2.073h-13.71l-.54 2.743h17.337c.21-1.606.262-3.11.262-4.61 0-6.216-3.77-10.41-10.258-10.41-9.264 0-14.6 8.493-14.6 16.936 0 6.938 3.87 11.34 10.99 11.34h6.27l.6-2.552" fill="#FCDA1E"/><text transform="translate(128 5)" font-family="Helvetica Neue" letter-spacing="-.129" font-size="18" font-style="italic" fill="#FFF"><tspan x="2" y="17">catholic education </tspan> <tspan x="2" y="37.504">commission of victoria ltd</tspan></text></g></svg>